<?xml version="1.0" encoding="UTF-8"?>
<svg xmlns="http://www.w3.org/2000/svg" xmlns:xlink="http://www.w3.org/1999/xlink" width="32px" height="32px" viewBox="0 0 32 32" version="1.1">
<g id="surface1">
<path style=" stroke:none;" d="M 20.785156 16 L 31.011719 5.773438 C 32.332031 4.453125 32.332031 2.3125 31.011719 0.992188 C 29.691406 -0.332031 27.546875 -0.332031 26.226562 0.992188 L 16 11.21875 L 5.773438 0.992188 C 4.453125 -0.328125 2.3125 -0.328125 0.992188 0.992188 C -0.328125 2.3125 -0.328125 4.453125 0.992188 5.777344 L 11.21875 16 L 0.992188 26.226562 C -0.328125 27.550781 -0.328125 29.691406 0.992188 31.011719 C 2.3125 32.332031 4.453125 32.332031 5.773438 31.011719 L 16 20.785156 L 26.226562 31.011719 C 27.546875 32.332031 29.691406 32.332031 31.011719 31.011719 C 32.332031 29.691406 32.332031 27.550781 31.011719 26.226562 Z M 20.785156 16 " fill="#6588DE" fill-opacity="1"/>
</g>
</svg>
